<svg width="982" height="955" viewBox="0 0 982 955" fill="none" xmlns="http://www.w3.org/2000/svg">
<g filter="url(#filter0_d_639_35)">
<path fill-rule="evenodd" clip-rule="evenodd" d="M587.869 56.4517C658.703 62.7024 738.476 9.00411 793.07 54.5424C848.609 100.868 826.146 187.524 831.452 259.629C837.498 341.783 880.074 435.415 825.651 497.279C770.508 559.963 669.185 555.539 587.869 536.52C521.63 521.027 492.38 450.856 440.274 407.143C377.987 354.888 277.392 338.516 257.818 259.629C236.188 172.463 266.416 61.9175 342.924 14.8196C416.232 -30.3081 502.105 48.8835 587.869 56.4517Z" fill="#D9ECFF" fill-opacity="0.18" stroke="black"/>
</g>
<circle cx="741.61" cy="130.564" r="94.6975" fill="#D3B3A7"/>
<circle cx="740.131" cy="130.069" r="84.34" fill="#EDC9BC"/>
<circle cx="740.835" cy="129.369" r="64.3635" fill="white" stroke="#6F5773" stroke-width="2"/>
<circle cx="742.935" cy="125.936" r="17.7558" fill="#F8DAD0" fill-opacity="0.76"/>
<rect x="738.381" y="70.6104" width="4.217" height="8.43399" fill="#E95850" fill-opacity="0.72"/>
<rect x="713.078" y="77.5847" width="4.217" height="8.43399" transform="rotate(-40.6917 713.078 77.5847)" fill="#46274C" fill-opacity="0.78"/>
<rect x="693.4" y="94.4475" width="4.217" height="8.43399" transform="rotate(-40.6917 693.4 94.4475)" fill="#46274C" fill-opacity="0.78"/>
<rect x="682.364" y="125.846" width="4.217" height="8.43399" transform="rotate(-92.8831 682.364 125.846)" fill="#E95850" fill-opacity="0.72"/>
<rect x="691.416" y="157.377" width="4.217" height="8.43399" transform="rotate(-122.01 691.416 157.377)" fill="#46274C" fill-opacity="0.78"/>
<rect x="714.184" y="181.214" width="4.217" height="8.43399" transform="rotate(-158.306 714.184 181.214)" fill="#46274C" fill-opacity="0.78"/>
<rect x="745.373" y="187.781" width="4.217" height="8.43399" transform="rotate(-179.467 745.373 187.781)" fill="#E95850" fill-opacity="0.72"/>
<rect x="777.746" y="175.748" width="4.217" height="8.43399" transform="rotate(143.022 777.746 175.748)" fill="#46274C" fill-opacity="0.78"/>
<rect x="796.214" y="149.504" width="4.217" height="8.43399" transform="rotate(96.0975 796.214 149.504)" fill="#46274C" fill-opacity="0.78"/>
<rect x="799.222" y="126.328" width="4.217" height="8.43399" transform="rotate(96.0975 799.222 126.328)" fill="#E95850" fill-opacity="0.72"/>
<rect x="789.029" y="97.3196" width="4.217" height="8.43399" transform="rotate(56.9694 789.029 97.3196)" fill="#46274C" fill-opacity="0.78"/>
<rect x="762.604" y="77.6431" width="4.217" height="8.43399" transform="rotate(21.862 762.604 77.6431)" fill="#46274C" fill-opacity="0.78"/>
<path d="M741.893 127.539L705.345 102.237C717.996 108.562 743.579 122.338 744.704 126.836C745.828 131.334 744.235 152.138 743.298 161.978L741.893 127.539Z" fill="#6F5773"/>
<path d="M391.922 105.642C445.247 135.204 499.561 227.337 520.052 269.709C592.387 418.749 733.058 724.663 717.06 755.998C697.063 795.167 520.051 807.731 437.099 807.731C370.738 807.731 155.441 807.731 115.664 746.39C-6.54058 557.935 100.927 254.351 160.918 176.012C243.564 68.09 325.264 68.6902 391.922 105.642Z" fill="#F2CD87"/>
<path d="M153.01 650.206C122.57 637.346 103.86 604.274 107.549 588.33H524.215L554.259 685.973C450.818 677.54 206.925 672.983 153.01 650.206Z" fill="#E4B061" fill-opacity="0.74"/>
<path d="M183.884 306.697C246.586 232.193 325.271 180.679 356.775 164.235C422.427 576.96 268.869 547.669 183.884 481.432C147.462 462.53 105.507 399.828 183.884 306.697Z" fill="#E4B061" fill-opacity="0.77"/>
<path d="M241.442 264.95C280.014 218.604 333.76 178.861 355.812 164.782C375.372 170.389 404.924 177.939 412.998 170.762C423.089 161.792 466.445 194.683 504.195 240.656C522.812 263.328 547.925 296.844 560.633 309.054C571.846 286.628 575.784 368.975 592.604 342.438L643.995 291.046C622.317 443.54 600.625 448.092 550.541 448.092C510.474 448.092 480.773 407.726 470.93 387.543L470.93 448.092L310.214 448.092C170.054 466.407 159.215 406.979 168.559 377.825C177.903 348.672 193.227 322.883 241.442 264.95Z" fill="white"/>
<path d="M402.352 187.125L393.661 172.105L381.06 187.125C373.412 250.385 366.865 365.742 364.547 415.513H384.102C383.059 394.662 395.834 254.567 402.352 187.125Z" fill="#8697FB"/>
<path d="M366.72 150.674C391.405 147.992 424.975 148.771 430.819 150.674L393.79 170.947L366.72 150.674Z" fill="#46274C"/>
<rect x="24.5358" y="714.721" width="222.141" height="65.6766" rx="6" fill="#5E75FF"/>
<rect x="0.390839" y="780.398" width="287.818" height="62.7791" rx="10" fill="#90AEAD"/>
<rect x="79.5898" y="714.721" width="10.6242" height="65.6766" fill="#FBF1DC"/>
<rect x="96.9745" y="714.721" width="10.6242" height="65.6766" fill="#FBF1DC"/>
<rect x="35.1603" y="797.781" width="221.176" height="28.0091" fill="white" fill-opacity="0.71"/>
<path d="M35.1885 780.888H212.902" stroke="#46274C" stroke-opacity="0.81" stroke-width="2" stroke-linecap="round"/>
<path d="M427.317 805.086C418.265 809.974 411.795 821.222 410.258 827.677C422.86 827.677 455.072 815.782 462.817 808.774C470.563 801.766 466.044 768.049 462.817 752.066C438.382 774.657 450.369 792.638 427.317 805.086Z" fill="#E95850"/>
<path d="M440.892 72.3796C442.359 65.3598 440.281 58.3401 439.058 55.7077C426.833 49.8579 400.55 39.9132 393.215 46.933C385.88 53.9527 388.936 75.012 391.381 84.6641C378.545 55.7077 352.873 70.6246 352.873 88.174C352.873 102.214 368.765 105.723 376.711 105.723V164.514C396.515 180.659 413.691 171.241 419.804 164.514L421.638 138.19C450.977 129.415 448.227 102.214 444.559 93.4388C440.892 84.6641 439.058 81.1543 440.892 72.3796Z" fill="#EAA296"/>
<ellipse cx="4.69052" cy="9.54323" rx="4.69052" ry="9.54323" transform="matrix(0.987054 -0.160386 0.136365 0.990659 435.245 89.2327)" fill="#E9746E" fill-opacity="0.78"/>
<ellipse cx="7.98517" cy="11.5086" rx="7.98517" ry="11.5086" transform="matrix(0.984571 0.174985 -0.117907 0.993025 397.493 85.9585)" fill="#E9746E" fill-opacity="0.78"/>
<path d="M390.464 132.048C402.2 140.472 416.747 139.653 422.554 138.191L420.603 156.2C404.467 153.392 393.826 138.483 390.464 132.048Z" fill="#46274C"/>
<path d="M369.379 68.8726C382.582 66.7667 389.353 80.8529 391.492 87.2877C391.187 78.5129 392.3 58.8692 395.968 57.4653C400.552 55.7103 428.058 57.4653 439.06 55.7103C450.062 53.9554 457.398 50.4455 458.315 40.7934C459.048 33.0716 455.564 27.6299 449.146 26.7536C424.639 23.4072 384.049 24.9986 376.714 30.2635C370.846 34.4753 369.379 42.548 369.379 46.0579V68.8726Z" fill="#46274C"/>
<path d="M362.958 80.2817L378.888 85.9659L368.459 91.6888" stroke="#46274C" stroke-width="2" stroke-linecap="round"/>
<path d="M419.304 78.0127C418.658 82.7248 415.233 92.1489 406.702 92.1489C396.04 92.1489 394.101 81.7824 394.101 78.0127" stroke="white" stroke-width="2"/>
<path d="M450.59 78.0127C449.62 82.0539 445.937 90.5093 438.957 92.0014C431.978 93.4935 427.002 83.2973 425.387 78.0127" stroke="white" stroke-width="2"/>
<path d="M450.59 78.0127H388.016" stroke="white" stroke-width="2" stroke-linecap="round"/>
<path d="M354.869 165.633L367.968 149.727L393.533 171.597L431.08 150.025L438.422 178.731C377.877 172.268 360.992 171.935 354.869 165.633Z" fill="white"/>
<path d="M381.497 187.566C372.682 261.287 364.55 382.823 364.55 417.721" stroke="#46274C" stroke-width="2"/>
<path d="M401.687 185.539L384.102 405.795" stroke="#46274C" stroke-width="2"/>
<path d="M436.679 178.732L410.889 200.669L393.269 172.246L373.117 197.96L354.455 163.663" stroke="#46274C" stroke-width="2"/>
<ellipse cx="4.24628" cy="4.19376" rx="4.24628" ry="4.19376" transform="matrix(-0.924625 -0.380878 -0.370247 0.928933 396.498 194.739)" fill="white"/>
<ellipse cx="4.24628" cy="4.19376" rx="4.24628" ry="4.19376" transform="matrix(-0.924625 -0.380878 -0.370247 0.928933 393.266 237.249)" fill="white"/>
<path d="M460.156 26.3907C466.671 33.384 466.807 56.4071 437.651 53.592" stroke="#46274C" stroke-width="2" stroke-linecap="round"/>
<path d="M558.354 312.586C556.326 325.986 552.27 355.083 552.27 364.272" stroke="#46274C" stroke-width="2" stroke-linecap="round"/>
<ellipse cx="5.43558" cy="3.13356" rx="5.43558" ry="3.13356" transform="matrix(-0.970601 -0.240693 -0.233321 0.9724 393.476 427.822)" fill="white" fill-opacity="0.63"/>
<path d="M806.368 756.941L792.01 708.973L694.788 749.215L712.62 798.502L806.368 756.941Z" fill="#EAA296"/>
<path d="M805.501 756.615L814.062 787.551C824.552 853.236 761.82 856.067 729.143 849.272L711.754 798.176L805.501 756.615Z" fill="white"/>
<path d="M770.769 841.435L717.25 809.597C678.173 855.735 687.553 908.583 697.128 929.24L979.723 838.072C976.578 828.022 969.169 802.793 956.053 792.254C936.094 776.216 838.259 799.059 820.835 808.005C806.896 815.162 790.083 831.903 770.769 841.435Z" fill="#E95850"/>
<path d="M974.178 821.332L693.817 909.453C689.193 910.906 694.111 923.263 697.148 929.26L979.048 837.797L974.178 821.332Z" fill="#46274C"/>
<path d="M840.491 803.47L805.886 841.956" stroke="#46274C" stroke-width="3" stroke-linecap="round"/>
<path d="M820.101 807.415L779.087 839.958" stroke="#46274C" stroke-width="3" stroke-linecap="round"/>
<path d="M972.555 822.431L692.537 909.256" stroke="white" stroke-width="4" stroke-linecap="round"/>
<path d="M528.566 521.916L479.942 516.78L503.102 596.525L547.541 589.911L528.566 521.916Z" fill="#E97E77"/>
<path d="M528.957 523.891L562.56 520.729C621.18 519.81 607.801 564.3 595.828 583.825L570.861 590.216L548.501 590.216L528.957 523.891Z" fill="white"/>
<path d="M596.852 557.561L561.77 589.12C594.259 617.04 639.209 614.397 658.818 610.249L633.032 428.764C623.775 429.852 600.627 432.283 589.082 439.463C571.516 450.387 572.922 512.483 577.38 523.953C580.946 533.128 592.242 544.879 596.852 557.561Z" fill="#ECE9E8"/>
<path d="M617.556 430.763L641.131 610.617C641.52 613.584 653.099 611.6 658.84 610.237L632.668 429.155L617.556 430.763Z" fill="#46274C"/>
<path d="M577.144 511.483L603.869 536.008" stroke="#46274C" stroke-width="3" stroke-linecap="round"/>
<path d="M618.198 431.856L640.721 611.389" stroke="white" stroke-width="4" stroke-linecap="round"/>
<path d="M258.264 371.102L315.449 309.805C306.062 330.666 291.656 371.862 306.995 374.84H310.964C309.464 375.071 308.145 375.063 306.995 374.84H283.472L258.264 371.102Z" fill="#ECE9E8"/>
<path d="M249.665 371.474C263.185 371.474 272.867 375.959 311.709 375.959" stroke="#46274C" stroke-width="2"/>
<path d="M162.893 492.663C213.194 464.93 307.088 448.959 332.485 442.567C515.122 492.661 644.332 406.572 682.797 442.565C721.263 478.559 764.173 580.027 840.469 692.298L667.263 773.734L584.303 525.473H492.589C498.914 543.658 511.423 635.682 515.122 658.3C371.226 648.417 197.66 637.344 187.008 636.164C173.692 634.688 110.991 625.483 104.333 585.654C97.676 545.825 100.017 527.329 162.893 492.663Z" fill="#9872EF"/>
<path d="M503.366 276.077H631.343C634.317 276.077 636.633 278.658 636.314 281.615L615.996 469.652H458.858L498.472 280.055C498.956 277.738 500.999 276.077 503.366 276.077Z" fill="white" stroke="#46274C" stroke-width="2" stroke-linecap="round"/>
<path d="M374.71 450.904L472.435 452.181L470.042 470.99H420.07L369.645 466.395V455.904C369.645 453.117 371.923 450.868 374.71 450.904Z" fill="#46274C"/>
<path d="M512.889 274.842H660.349C663.525 274.842 665.896 277.764 665.242 280.871L625.066 471.836L468.533 469.582L507.993 278.829C508.473 276.507 510.518 274.842 512.889 274.842Z" fill="#46274C"/>
<ellipse cx="13.9444" cy="22.1932" rx="13.9444" ry="22.1932" transform="matrix(-0.989131 -0.147039 -0.147039 0.989131 588.616 350.374)" fill="white" fill-opacity="0.47"/>
<path d="M490.478 526.153C460.203 529.227 385.084 533.53 326.808 526.153" stroke="#46274C" stroke-opacity="0.73" stroke-width="2"/>
<path d="M637.01 431.379L613.356 416.008C609.422 409.889 617.078 398.334 621.312 396.508L624.574 393.594C628.926 385.992 632.622 378.383 631.578 371.191C630.65 364.791 621.427 339.699 627.293 336.487C631.985 333.917 639.594 345.307 641.664 348.535C640.186 337.757 641.452 325.725 647.843 327.334C652.955 328.62 653.337 334.802 653.61 340.093C661.88 318.265 668.182 310.882 669.182 320.32C672.416 350.859 679.431 372.939 637.01 431.379Z" fill="#EAA296"/>
<path d="M655.004 342.975C655.655 347.56 656.987 357.836 657.105 362.257" stroke="#46274C" stroke-width="2" stroke-linecap="round"/>
<path d="M640.432 346.966C643.263 353.929 648.641 369.158 647.51 374.362C646.379 379.566 645.056 381.52 644.536 381.847" stroke="#46274C" stroke-width="2" stroke-linecap="round"/>
<ellipse cx="6.01369" cy="2.60929" rx="6.01369" ry="2.60929" transform="matrix(-0.173872 -0.984768 0.999845 -0.0176019 648.765 340.284)" fill="white" fill-opacity="0.63"/>
<ellipse cx="4.63937" cy="2.60929" rx="4.63937" ry="2.60929" transform="matrix(0.150272 -0.988645 0.952941 0.303155 663.395 326.035)" fill="white" fill-opacity="0.63"/>
<ellipse cx="5.42061" cy="2.77846" rx="5.42061" ry="2.77846" transform="matrix(-0.676262 -0.736661 0.813002 -0.582261 634.21 348.068)" fill="white" fill-opacity="0.63"/>
<path d="M626.208 647.626C575.924 634.975 552.811 604.404 547.54 590.7H564.934C581.063 603.666 604.861 610.07 614.744 611.652L626.208 647.626Z" fill="#E4B061"/>
<path d="M315.683 406L317.632 433.444C321.363 439.681 336.536 438.557 340.564 435.795L345.108 434.373C354.721 434.22 363.988 434.631 370.302 438.9C375.92 442.698 394.941 462.363 401.173 458.855C406.159 456.049 399.369 444.195 397.399 440.91C406.907 447.233 419.093 451.798 420.999 445.578C422.524 440.602 416.82 437.374 411.908 434.657C437.235 437.831 447.689 435.908 439.205 430.623C411.749 413.521 394.419 397.157 315.683 406Z" fill="#EAA296"/>
<path d="M409.902 432.112C405.868 429.402 396.761 423.439 392.598 421.263" stroke="#46274C" stroke-width="2" stroke-linecap="round"/>
<path d="M398.23 442.701C393.097 437.012 381.436 425.264 375.851 423.788C370.265 422.312 367.684 422.526 367.091 422.818" stroke="#46274C" stroke-width="2" stroke-linecap="round"/>
<ellipse cx="6.32936" cy="2.62519" rx="6.32936" ry="2.62519" transform="matrix(0.805556 0.580489 0.55228 -0.841631 409.11 438.71)" fill="white" fill-opacity="0.63"/>
<ellipse cx="5.03059" cy="2.55765" rx="5.03059" ry="2.55765" transform="matrix(0.94642 0.309487 0.228209 -0.976547 430.615 432.89)" fill="white" fill-opacity="0.63"/>
<path d="M329.619 556.142C345.229 548.15 359.619 542.343 373.384 533.265" stroke="#46274C" stroke-opacity="0.73" stroke-width="2"/>
<ellipse cx="5.36553" cy="2.98584" rx="5.36553" ry="2.98584" transform="matrix(0.343377 0.9336 0.925733 -0.392613 393.824 447.506)" fill="white" fill-opacity="0.63"/>
<path d="M324.352 447.348C348.174 451.193 347.549 431.276 375.802 443.594C369.529 435.224 353.577 430.264 342.868 433.319C334.3 435.762 325.38 435.247 324.352 435.014L324.352 447.348Z" fill="#E97E77"/>
<path d="M328.904 446.974L334.571 378.583L315.136 376.714L309.842 446.974L328.904 446.974Z" fill="#8697FB"/>
<path d="M696.105 456.075C778.631 625.278 796.612 698.583 796.612 711.954L845.943 692.129C811.642 655.614 742.209 520.621 696.105 456.075Z" fill="#B88CF6"/>
<path d="M459.445 809.952L462.214 751.729C515.008 759.061 548.071 802.85 559.593 824.395L363.349 948.464C357.066 939.003 341.077 915.58 338.882 899.034C335.543 873.856 396.811 824.535 411.455 819.314C423.171 815.138 443.506 816.02 459.445 809.952Z" fill="#DD3728"/>
<path d="M353.02 932.504L545.932 807.716C549.114 805.658 556.368 818 559.598 824.429L363.439 947.813L353.02 932.504Z" fill="#46274C"/>
<path d="M399.19 829.269L444.128 834.03" stroke="#46274C" stroke-width="3" stroke-linecap="round"/>
<path d="M411.333 818.392L454.593 814.488" stroke="#46274C" stroke-width="3" stroke-linecap="round"/>
<path d="M625.103 423.804C610.254 413.006 621.722 399.83 625.103 393.836C619.11 396.602 613.761 401.674 611.733 411.817C608.966 425.648 623.258 437.635 632.94 435.33C640.685 433.486 648.154 416.581 651.381 409.512C647.232 415.505 635.246 431.181 625.103 423.804Z" fill="#E97E77"/>
<path d="M354.588 932.205L546.355 806.703" stroke="white" stroke-width="4" stroke-linecap="round"/>
<defs>
<filter id="filter0_d_639_35" x="246.5" y="0.5" width="611" height="557" filterUnits="userSpaceOnUse" color-interpolation-filters="sRGB">
<feFlood flood-opacity="0" result="BackgroundImageFix"/>
<feColorMatrix in="SourceAlpha" type="matrix" values="0 0 0 0 0 0 0 0 0 0 0 0 0 0 0 0 0 0 127 0" result="hardAlpha"/>
<feOffset dy="4"/>
<feGaussianBlur stdDeviation="2"/>
<feComposite in2="hardAlpha" operator="out"/>
<feColorMatrix type="matrix" values="0 0 0 0 0 0 0 0 0 0 0 0 0 0 0 0 0 0 0.25 0"/>
<feBlend mode="normal" in2="BackgroundImageFix" result="effect1_dropShadow_639_35"/>
<feBlend mode="normal" in="SourceGraphic" in2="effect1_dropShadow_639_35" result="shape"/>
</filter>
</defs>
</svg>
