<svg width="137" height="137" viewBox="0 0 137 137" fill="none" xmlns="http://www.w3.org/2000/svg">
<circle cx="68.6105" cy="68.6437" r="48.2536" transform="rotate(140.817 68.6105 68.6437)" fill="#D9ECFF"/>
<path d="M68 53L54 59L68 65L82 59L68 53Z" stroke="#2F2B6D" stroke-width="3" stroke-linejoin="round"/>
<path fill-rule="evenodd" clip-rule="evenodd" d="M61.2241 64.272L53.4091 67.6213C52.8576 67.8577 52.5 68.4 52.5 69C52.5 69.6 52.8576 70.1423 53.4091 70.3787L67.4091 76.3787C67.7864 76.5404 68.2136 76.5404 68.5909 76.3787L82.5909 70.3787C83.1424 70.1423 83.5 69.6 83.5 69C83.5 68.4 83.1424 67.8577 82.5909 67.6213L74.7759 64.272L70.968 65.9039L78.1921 69L68 73.368L57.8079 69L65.032 65.9039L61.2241 64.272ZM66.3013 62.0961L67.4091 61.6213C67.7864 61.4596 68.2136 61.4596 68.5909 61.6213L69.6987 62.0961L68 62.8241L66.3013 62.0961Z" fill="#2F2B6D"/>
<path fill-rule="evenodd" clip-rule="evenodd" d="M61.2241 74.272L53.4091 77.6213C52.8576 77.8577 52.5 78.4 52.5 79C52.5 79.6 52.8576 80.1423 53.4091 80.3787L67.4091 86.3787C67.7864 86.5404 68.2136 86.5404 68.5909 86.3787L82.5909 80.3787C83.1424 80.1423 83.5 79.6 83.5 79C83.5 78.4 83.1424 77.8577 82.5909 77.6213L74.7759 74.272L70.968 75.9039L78.1921 79L68 83.368L57.8079 79L65.032 75.9039L61.2241 74.272ZM66.3013 72.0961L67.4091 71.6213C67.7864 71.4596 68.2136 71.4596 68.5909 71.6213L69.6987 72.0961L68 72.8241L66.3013 72.0961Z" fill="#2F2B6D"/>
</svg>
