<svg width="97" height="96" viewBox="0 0 97 96" fill="none" xmlns="http://www.w3.org/2000/svg">
<ellipse cx="48.5" cy="48" rx="48.5" ry="48" fill="#D9ECFF"/>
<path d="M65.8029 36.1938L64.5557 37.0272L64.5557 37.0272L65.8029 36.1938ZM65.8029 56.5856L64.5557 55.7522L64.5557 55.7522L65.8029 56.5856ZM63.6483 58.7402L62.8149 57.493L62.8149 57.493L63.6483 58.7402ZM55.4048 60.0537L55.3982 58.5537C54.5724 58.5573 53.9048 59.2278 53.9048 60.0537H55.4048ZM55.4048 60.0564L56.7464 60.7272C56.8505 60.5189 56.9048 60.2892 56.9048 60.0564H55.4048ZM52.3944 66.077L53.7361 66.7479L53.7361 66.7478L52.3944 66.077ZM47.5952 60.0564H46.0952C46.0952 60.2892 46.1495 60.5189 46.2536 60.7272L47.5952 60.0564ZM47.5952 60.0537H49.0952C49.0952 59.2278 48.4276 58.5573 47.6018 58.5537L47.5952 60.0537ZM39.3517 58.7402L40.1851 57.493L40.1851 57.493L39.3517 58.7402ZM37.1971 56.5856L38.4443 55.7522L38.4443 55.7522L37.1971 56.5856ZM37.1971 36.1938L35.9499 35.3605L35.9499 35.3605L37.1971 36.1938ZM39.3517 34.0392L38.5184 32.792L38.5184 32.792L39.3517 34.0392ZM63.6483 34.0392L62.8149 35.2864L62.8149 35.2864L63.6483 34.0392ZM68.619 46.3897C68.619 43.6789 68.6209 41.5328 68.4468 39.8221C68.2702 38.0862 67.9003 36.6329 67.0501 35.3605L64.5557 37.0272C65.0216 37.7245 65.3098 38.627 65.4622 40.1257C65.6172 41.6494 65.619 43.6164 65.619 46.3897H68.619ZM67.0501 57.4189C67.9003 56.1465 68.2702 54.6932 68.4468 52.9573C68.6209 51.2465 68.619 49.1005 68.619 46.3897H65.619C65.619 49.163 65.6172 51.13 65.4622 52.6537C65.3098 54.1523 65.0216 55.0549 64.5557 55.7522L67.0501 57.4189ZM64.4816 59.9874C65.4981 59.3082 66.3709 58.4354 67.0501 57.4189L64.5557 55.7522C64.0954 56.4412 63.5038 57.0327 62.8149 57.493L64.4816 59.9874ZM55.4113 61.5537C57.5105 61.5445 59.2351 61.5049 60.6664 61.3071C62.1217 61.1059 63.3703 60.73 64.4816 59.9874L62.8149 57.493C62.2055 57.9002 61.4386 58.1718 60.2556 58.3354C59.0484 58.5022 57.5117 58.5445 55.3982 58.5537L55.4113 61.5537ZM56.9048 60.0564V60.0537H53.9048V60.0564H56.9048ZM53.7361 66.7478L56.7464 60.7272L54.0631 59.3855L51.0528 65.4062L53.7361 66.7478ZM49.2639 66.7478C50.1852 68.5905 52.8148 68.5905 53.7361 66.7479L51.0528 65.4062C51.237 65.0377 51.7629 65.0377 51.9472 65.4062L49.2639 66.7478ZM46.2536 60.7272L49.2639 66.7478L51.9472 65.4062L48.9369 59.3855L46.2536 60.7272ZM46.0952 60.0537V60.0564H49.0952V60.0537H46.0952ZM38.5184 59.9874C39.6297 60.73 40.8783 61.1059 42.3336 61.3071C43.7649 61.5049 45.4895 61.5445 47.5887 61.5537L47.6018 58.5537C45.4883 58.5445 43.9516 58.5022 42.7444 58.3354C41.5613 58.1718 40.7945 57.9002 40.1851 57.493L38.5184 59.9874ZM35.9499 57.4189C36.6291 58.4354 37.5019 59.3082 38.5184 59.9874L40.1851 57.493C39.4962 57.0327 38.9046 56.4412 38.4443 55.7522L35.9499 57.4189ZM34.381 46.3897C34.381 49.1005 34.3791 51.2465 34.5532 52.9573C34.7298 54.6932 35.0997 56.1465 35.9499 57.4189L38.4443 55.7522C37.9784 55.0549 37.6902 54.1523 37.5378 52.6537C37.3828 51.13 37.381 49.163 37.381 46.3897H34.381ZM35.9499 35.3605C35.0997 36.6329 34.7298 38.0862 34.5532 39.8221C34.3791 41.5328 34.381 43.6789 34.381 46.3897H37.381C37.381 43.6164 37.3828 41.6494 37.5378 40.1257C37.6902 38.627 37.9784 37.7245 38.4443 37.0272L35.9499 35.3605ZM38.5184 32.792C37.5019 33.4712 36.6291 34.3439 35.9499 35.3605L38.4443 37.0272C38.9046 36.3382 39.4962 35.7467 40.1851 35.2864L38.5184 32.792ZM49.5476 31.223C46.8368 31.223 44.6908 31.2212 42.98 31.3952C41.2441 31.5718 39.7908 31.9418 38.5184 32.792L40.1851 35.2864C40.8824 34.8204 41.785 34.5323 43.2836 34.3798C44.8073 34.2248 46.7744 34.223 49.5476 34.223V31.223ZM53.4524 31.223H49.5476V34.223H53.4524V31.223ZM64.4816 32.792C63.2092 31.9418 61.7559 31.5718 60.02 31.3952C58.3092 31.2212 56.1632 31.223 53.4524 31.223V34.223C56.2256 34.223 58.1927 34.2248 59.7164 34.3798C61.215 34.5323 62.1176 34.8204 62.8149 35.2864L64.4816 32.792ZM67.0501 35.3605C66.3709 34.3439 65.4981 33.4712 64.4816 32.792L62.8149 35.2864C63.5038 35.7467 64.0954 36.3382 64.5557 37.0272L67.0501 35.3605Z" fill="#2F2B6D"/>
<circle cx="59.3095" cy="46.5476" r="1.95238" fill="#2F2B6D" stroke="#2F2B6D" stroke-linecap="round"/>
<circle cx="51.5" cy="46.5476" r="1.95238" fill="#2F2B6D" stroke="#2F2B6D" stroke-linecap="round"/>
<circle cx="43.6905" cy="46.5476" r="1.95238" fill="#2F2B6D" stroke="#2F2B6D" stroke-linecap="round"/>
</svg>
