<svg width="96" height="96" viewBox="0 0 96 96" fill="none" xmlns="http://www.w3.org/2000/svg">
<circle cx="48" cy="48" r="48" fill="#D9ECFF"/>
<path d="M59.8235 33.0291C58.0973 31.7045 56.1596 30.686 54.0948 30.0152C53.6581 29.8733 53.4397 29.8024 53.2509 29.9049C53.0621 30.0074 53.0005 30.2373 52.8773 30.6972L48.4489 47.2242C48.3269 47.6795 48.2659 47.9072 48.3694 48.0865C48.473 48.2659 48.7007 48.3269 49.156 48.4489L65.683 52.8773C66.1429 53.0005 66.3728 53.0621 66.556 52.9499C66.7391 52.8377 66.7869 52.613 66.8824 52.1638C67.3338 50.0403 67.4206 47.8529 67.1366 45.6957C66.809 43.2076 65.9946 40.8084 64.7398 38.6351C63.485 36.4617 61.8145 34.5568 59.8235 33.0291Z" stroke="#2F2B6D" stroke-width="3"/>
<path d="M47.254 38.3663C44.6906 38.0301 42.0847 38.4439 39.7515 39.5578C37.4184 40.6716 35.458 42.4377 34.1075 44.6423C32.7571 46.847 32.0744 49.3957 32.1422 51.9802C32.2099 54.5647 33.0252 57.0742 34.4893 59.2051C35.9534 61.3359 38.0036 62.9969 40.3919 63.9869C42.7802 64.977 45.4042 65.2538 47.9465 64.7838C50.4888 64.3138 52.8404 63.1171 54.7168 61.3386C56.5933 59.5601 57.9141 57.2759 58.5196 54.7624" stroke="#2F2B6D" stroke-width="3"/>
</svg>
