<svg width="135" height="135" viewBox="0 0 135 135" fill="none" xmlns="http://www.w3.org/2000/svg">
<circle cx="67.6841" cy="67.676" r="48.2536" transform="rotate(145.78 67.6841 67.676)" fill="#D9ECFF"/>
<path d="M52.125 63.8341C52.125 62.0848 53.5431 60.6667 55.2924 60.6667V60.6667C56.4921 60.6667 57.5889 59.9889 58.1254 58.9158L59.5611 56.0445C60.099 54.9687 60.3679 54.4308 60.8512 54.1321C61.3345 53.8334 61.936 53.8334 63.1388 53.8334H71.8612C73.064 53.8334 73.6654 53.8334 74.1487 54.1321C74.632 54.4308 74.901 54.9687 75.4389 56.0445L76.8745 58.9158C77.4111 59.9889 78.5078 60.6667 79.7075 60.6667V60.6667C81.4569 60.6667 82.875 62.0848 82.875 63.8341V75.1667C82.875 77.9951 82.875 79.4093 81.9963 80.288C81.1176 81.1667 79.7034 81.1667 76.875 81.1667H58.125C55.2965 81.1667 53.8823 81.1667 53.0036 80.288C52.125 79.4093 52.125 77.9951 52.125 75.1667V63.8341Z" stroke="#2F2B6D" stroke-width="3"/>
<path d="M72.8333 69.2083C72.8333 72.1539 70.4455 74.5417 67.5 74.5417C64.5544 74.5417 62.1666 72.1539 62.1666 69.2083C62.1666 66.2628 64.5544 63.875 67.5 63.875C70.4455 63.875 72.8333 66.2628 72.8333 69.2083Z" stroke="#2F2B6D" stroke-width="3"/>
</svg>
