<svg width="97" height="96" viewBox="0 0 97 96" fill="none" xmlns="http://www.w3.org/2000/svg">
<ellipse cx="48.5" cy="48" rx="48.5" ry="48" fill="#D9ECFF"/>
<path d="M57.125 44.375L51.875 49.625L48.375 46.125L43.125 51.375" stroke="#2F2B6D" stroke-width="3" stroke-linecap="round" stroke-linejoin="round"/>
<path d="M54.5 34.75H40.2C39.0799 34.75 38.5198 34.75 38.092 34.968C37.7157 35.1597 37.4097 35.4657 37.218 35.842C37 36.2698 37 36.8299 37 37.95V57.8C37 58.9201 37 59.4802 37.218 59.908C37.4097 60.2843 37.7157 60.5903 38.092 60.782C38.5198 61 39.0799 61 40.2 61H60.05C61.1701 61 61.7302 61 62.158 60.782C62.5343 60.5903 62.8403 60.2843 63.032 59.908C63.25 59.4802 63.25 58.9201 63.25 57.8V43.5" stroke="#2F2B6D" stroke-width="3" stroke-linecap="round"/>
<ellipse cx="63.25" cy="34.75" rx="3.5" ry="3.5" fill="#2F2B6D"/>
</svg>
